<?xml version="1.0" encoding="UTF-8" standalone="no"?>
<!DOCTYPE svg PUBLIC "-//W3C//DTD SVG 1.1//EN" "http://www.w3.org/Graphics/SVG/1.1/DTD/svg11.dtd">
<svg width="100%" height="100%" viewBox="0 0 199 172" version="1.1" xmlns="http://www.w3.org/2000/svg" xmlns:xlink="http://www.w3.org/1999/xlink" xml:space="preserve" xmlns:serif="http://www.serif.com/" style="fill-rule:evenodd;clip-rule:evenodd;stroke-linejoin:round;stroke-miterlimit:2;">
    <g id="Artboard2" transform="matrix(1,0,0,1,8.5287,190.586)">
        <rect x="-8.529" y="-190.586" width="198.983" height="171.603" style="fill:none;"/>
        <g transform="matrix(0.364822,0,0,0.354008,-107.16,-335.175)">
            <path d="M317.5,432.5C466.167,432.333 614.834,432.5 763.5,433C764,433.5 764.5,434 765,434.5C765.667,439.833 765.667,445.167 765,450.5C764.167,451.333 763.333,452.167 762.5,453C614.5,453.667 466.5,453.667 318.5,453C317.667,452.167 316.833,451.333 316,450.5C315.333,445.167 315.333,439.833 316,434.5C316.717,433.956 317.217,433.289 317.5,432.5Z" style="fill:rgb(37,42,50);"/>
        </g>
        <g transform="matrix(0.364822,0,0,0.354008,-107.16,-335.175)">
            <path d="M482.5,463.5L598.5,463.5C598.667,479.837 598.5,496.17 598,512.5C596.833,513.667 595.667,514.833 594.5,516C576.5,516.167 558.5,516.333 540.5,516.5C521.746,516.655 503.079,516.155 484.5,515C483.874,514.25 483.374,513.416 483,512.5C482.5,496.17 482.333,479.837 482.5,463.5Z" style="fill:rgb(38,43,50);"/>
        </g>
        <g transform="matrix(0.364822,0,0,0.354008,-107.16,-335.175)">
            <path d="M568.5,567.5C567.262,569.214 566.595,571.214 566.5,573.5C548.757,573.819 531.09,573.486 513.5,572.5C509.637,557.385 505.304,542.385 500.5,527.5C527.167,526.167 553.833,526.167 580.5,527.5C575.878,540.659 571.878,553.992 568.5,567.5Z" style="fill:rgb(36,41,49);"/>
        </g>
        <g transform="matrix(0.364822,0,0,0.354008,-107.16,-335.175)">
            <path d="M568.5,567.5C568.326,569.861 567.993,572.194 567.5,574.5C549.136,575.153 531.136,574.487 513.5,572.5C531.09,573.486 548.757,573.819 566.5,573.5C566.595,571.214 567.262,569.214 568.5,567.5Z" style="fill:rgb(208,209,211);"/>
        </g>
        <g transform="matrix(0.364822,0,0,0.354008,-107.16,-335.175)">
            <path d="M562.5,586.5C555.532,585.169 548.198,584.503 540.5,584.5C532.802,584.503 525.468,585.169 518.5,586.5C517.596,585.791 517.263,584.791 517.5,583.5L563.5,583.5C563.737,584.791 563.404,585.791 562.5,586.5Z" style="fill:rgb(180,181,184);"/>
        </g>
        <g transform="matrix(0.364822,0,0,0.354008,-107.16,-335.175)">
            <path d="M562.5,586.5C559.003,596.998 555.67,607.665 552.5,618.5C551.975,619.192 551.308,619.692 550.5,620C543.5,620.667 536.5,620.667 529.5,620C529,619.5 528.5,619 528,618.5C524.266,607.989 521.099,597.323 518.5,586.5C525.468,585.169 532.802,584.503 540.5,584.5C548.198,584.503 555.532,585.169 562.5,586.5Z" style="fill:rgb(36,41,49);"/>
        </g>
        <g transform="matrix(0.364822,0,0,0.354008,-107.16,-335.175)">
            <path d="M752.5,857.5C753.966,856.653 754.8,855.32 755,853.5C755.812,849.311 755.645,845.311 754.5,841.5C751.554,829.39 743.887,822.223 731.5,820C602.5,819.667 473.5,819.333 344.5,819C332.32,815.979 323.653,808.812 318.5,797.5C315.871,787.801 315.871,778.134 318.5,768.5C323.884,756.296 333.217,749.13 346.5,747C475.5,746.667 604.5,746.333 733.5,746C748.88,741.62 756.047,731.454 755,715.5C752.158,704.658 745.325,697.825 734.5,695C669.167,694.667 603.833,694.333 538.5,694C537.667,693.167 536.833,692.333 536,691.5C535.5,671.503 535.333,651.503 535.5,631.5L545.5,631.5C545.333,647.837 545.5,664.17 546,680.5C546.374,681.416 546.874,682.25 547.5,683C609.167,683.333 670.833,683.667 732.5,684C760.176,691.521 770.009,709.021 762,736.5C755.89,747.93 746.39,754.763 733.5,757C604.167,757.333 474.833,757.667 345.5,758C326.192,766.113 321.025,779.613 330,798.5C333.903,803.868 339.07,807.368 345.5,809C475.863,809.01 606.196,809.677 736.5,811C754.348,815.366 764.015,826.7 765.5,845C764.804,864.012 755.47,876.345 737.5,882C597.5,882.667 457.5,882.667 317.5,882C314.833,879 314.833,876 317.5,873C456.167,872.667 594.833,872.333 733.5,872C742.007,869.991 748.34,865.157 752.5,857.5Z" style="fill:rgb(39,44,52);"/>
        </g>
        <g transform="matrix(0.364822,0,0,0.354008,-107.16,-335.175)">
            <path d="M318.5,768.5C315.871,778.134 315.871,787.801 318.5,797.5C317.207,796.158 316.374,794.491 316,792.5C315.333,786.167 315.333,779.833 316,773.5C316.374,771.509 317.207,769.842 318.5,768.5Z" style="fill:rgb(84,87,94);"/>
        </g>
        <g transform="matrix(0.364822,0,0,0.354008,-107.16,-335.175)">
            <path d="M754.5,841.5C755.645,845.311 755.812,849.311 755,853.5C754.8,855.32 753.966,856.653 752.5,857.5C754.184,852.324 754.85,846.991 754.5,841.5Z" style="fill:rgb(123,126,131);"/>
        </g>
    </g>
</svg>
