<?xml version="1.0" encoding="UTF-8" standalone="no"?>
<!DOCTYPE svg PUBLIC "-//W3C//DTD SVG 1.1//EN" "http://www.w3.org/Graphics/SVG/1.1/DTD/svg11.dtd">
<svg width="100%" height="100%" viewBox="0 0 2470 520" version="1.1" xmlns="http://www.w3.org/2000/svg" xmlns:xlink="http://www.w3.org/1999/xlink" xml:space="preserve" xmlns:serif="http://www.serif.com/" style="fill-rule:evenodd;clip-rule:evenodd;stroke-linejoin:round;stroke-miterlimit:2;">
    <g id="Artboard1" transform="matrix(0.758418,0,0,0.313143,140.206,50.2187)">
        <rect x="-184.866" y="-160.37" width="3256.78" height="1660.59" style="fill:none;"/>
        <g transform="matrix(1.31853,0,0,3.19343,-545.639,-1435.44)">
            <path d="M317.5,432.5C466.167,432.333 614.834,432.5 763.5,433C764,433.5 764.5,434 765,434.5C765.667,439.833 765.667,445.167 765,450.5C764.167,451.333 763.333,452.167 762.5,453C614.5,453.667 466.5,453.667 318.5,453C317.667,452.167 316.833,451.333 316,450.5C315.333,445.167 315.333,439.833 316,434.5C316.717,433.956 317.217,433.289 317.5,432.5Z" style="fill:rgb(37,42,50);"/>
        </g>
        <g transform="matrix(1.31853,0,0,3.19343,-545.639,-1435.44)">
            <path d="M482.5,463.5L598.5,463.5C598.667,479.837 598.5,496.17 598,512.5C596.833,513.667 595.667,514.833 594.5,516C576.5,516.167 558.5,516.333 540.5,516.5C521.746,516.655 503.079,516.155 484.5,515C483.874,514.25 483.374,513.416 483,512.5C482.5,496.17 482.333,479.837 482.5,463.5Z" style="fill:rgb(38,43,50);"/>
        </g>
        <g transform="matrix(1.31853,0,0,3.19343,-545.639,-1435.44)">
            <path d="M1314.5,488.5C1314.82,493.659 1314.15,498.659 1312.5,503.5C1303.19,515.581 1291.86,517.747 1278.5,510C1267.54,497.969 1267.87,486.302 1279.5,475C1292.33,467.459 1303.16,469.626 1312,481.5C1313.41,483.65 1314.24,485.984 1314.5,488.5Z" style="fill:rgb(37,42,50);"/>
        </g>
        <g transform="matrix(1.31853,0,0,3.19343,-545.639,-1435.44)">
            <path d="M1745.5,536.5C1744.37,539.628 1743.53,542.962 1743,546.5C1742.18,556.009 1742.34,565.343 1743.5,574.5L1791.5,574.5L1791.5,597.5L1742.5,597.5L1742.5,765.5L1716.5,765.5C1716.33,689.499 1716.5,613.499 1717,537.5C1718.16,533.582 1718.66,529.582 1718.5,525.5C1730.39,483.386 1757.72,467.219 1800.5,477C1804.33,478.746 1807.99,480.746 1811.5,483C1808.79,490.306 1805.79,497.472 1802.5,504.5C1770.58,492.073 1751.58,502.74 1745.5,536.5Z" style="fill:rgb(36,41,49);"/>
        </g>
        <g transform="matrix(1.31853,0,0,3.19343,-545.639,-1435.44)">
            <path d="M1614.5,475.5L1588.5,475.5L1588.5,698.5C1587.5,624.002 1587.17,549.335 1587.5,474.5C1596.68,474.173 1605.68,474.507 1614.5,475.5Z" style="fill:rgb(128,131,136);"/>
        </g>
        <g transform="matrix(1.31853,0,0,3.19343,-545.639,-1435.44)">
            <path d="M1614.5,475.5L1614.5,576.5L1664.5,576.5L1664.5,598.5L1614.5,598.5C1614.17,631.338 1614.5,664.004 1615.5,696.5C1616.82,712.984 1623.82,726.484 1636.5,737C1649.35,742.955 1662.18,742.788 1675,736.5C1678.39,742.992 1681.23,749.826 1683.5,757C1683.17,757.5 1682.83,758 1682.5,758.5C1635.78,775.057 1604.95,759.724 1590,712.5C1589.17,707.863 1588.67,703.196 1588.5,698.5L1588.5,475.5L1614.5,475.5Z" style="fill:rgb(35,40,48);"/>
        </g>
        <g transform="matrix(1.31853,0,0,3.19343,-545.639,-1435.44)">
            <path d="M1314.5,488.5C1315.64,491.976 1315.81,495.642 1315,499.5C1314.8,501.32 1313.97,502.653 1312.5,503.5C1314.15,498.659 1314.82,493.659 1314.5,488.5Z" style="fill:rgb(174,176,179);"/>
        </g>
        <g transform="matrix(1.31853,0,0,3.19343,-545.639,-1435.44)">
            <path d="M568.5,567.5C567.262,569.214 566.595,571.214 566.5,573.5C548.757,573.819 531.09,573.486 513.5,572.5C509.637,557.385 505.304,542.385 500.5,527.5C527.167,526.167 553.833,526.167 580.5,527.5C575.878,540.659 571.878,553.992 568.5,567.5Z" style="fill:rgb(36,41,49);"/>
        </g>
        <g transform="matrix(1.31853,0,0,3.19343,-545.639,-1435.44)">
            <path d="M2058.5,683.5C2056.46,687.94 2054.8,692.607 2053.5,697.5C2031.16,746.689 1992.82,769.189 1938.5,765C1898.87,758.773 1870.37,737.607 1853,701.5C1849.73,693.433 1847.57,685.1 1846.5,676.5C1845.67,665.187 1845.34,653.854 1845.5,642.5L1845.5,637.5C1846.92,635.485 1847.59,633.152 1847.5,630.5L1847.5,629.5C1849.61,625.498 1850.94,621.165 1851.5,616.5C1866.32,579.843 1892.99,557.01 1931.5,548C1984.49,540.747 2023.99,560.247 2050,606.5C2061.77,631.182 2064.6,656.848 2058.5,683.5ZM2033.5,644.5C2031.82,635.276 2028.98,626.276 2025,617.5C2003.13,579.987 1970.96,566.154 1928.5,576C1899.15,587.243 1880.82,608.076 1873.5,638.5C1872.74,648.482 1872.41,658.482 1872.5,668.5C1879.14,708.64 1902.47,732.473 1942.5,740C1984.82,742.534 2013.82,724.367 2029.5,685.5C2029.41,682.848 2030.08,680.515 2031.5,678.5L2031.5,677.5C2033.16,666.574 2033.83,655.574 2033.5,644.5Z" style="fill:rgb(36,41,49);"/>
        </g>
        <g transform="matrix(1.31853,0,0,3.19343,-545.639,-1435.44)">
            <path d="M2222.5,779.5C2231.1,777.529 2240.1,776.862 2249.5,777.5C2264.22,801.041 2285.55,814.207 2313.5,817C2339.35,819.954 2363.01,814.287 2384.5,800C2400.19,786.125 2407.86,768.625 2407.5,747.5C2408.82,738.991 2408.82,730.325 2407.5,721.5C2406.7,721.957 2406.37,722.624 2406.5,723.5C2375.18,755.917 2337.52,766.75 2293.5,756C2238.68,735.551 2213.84,696.051 2219,637.5C2219.44,635.134 2219.94,632.801 2220.5,630.5C2222.61,626.498 2223.94,622.165 2224.5,617.5C2240.43,578.086 2269.43,554.586 2311.5,547C2350.98,543.158 2384.81,554.991 2413,582.5C2422.95,596.078 2429.95,611.078 2434,627.5C2435.64,664.453 2435.97,701.453 2435,738.5C2434.75,758.947 2430.08,778.281 2421,796.5C2407.9,817.243 2389.4,830.743 2365.5,837C2325.75,847.687 2288.42,842.353 2253.5,821C2239.15,810.131 2228.82,796.298 2222.5,779.5ZM2409.5,641.5C2408.26,633.931 2406.09,626.598 2403,619.5C2383.28,582.392 2352.45,567.226 2310.5,574C2282.44,580.671 2262.77,597.171 2251.5,623.5C2250.74,627.767 2249.41,631.767 2247.5,635.5C2241.53,661.49 2246.36,685.157 2262,706.5C2284.08,730.193 2311.24,739.36 2343.5,734C2372.54,729.167 2392.88,713.333 2404.5,686.5C2404.72,682.838 2405.72,679.505 2407.5,676.5L2407.5,675.5C2409.13,664.236 2409.8,652.903 2409.5,641.5Z" style="fill:rgb(37,41,49);"/>
        </g>
        <g transform="matrix(1.31853,0,0,3.19343,-545.639,-1435.44)">
            <path d="M2696.5,644.5L2696.5,657.5L2509.5,657.5C2509.23,659.099 2509.57,660.432 2510.5,661.5C2513.37,705.535 2536.37,732.035 2579.5,741C2604.53,742.435 2626.86,735.435 2646.5,720C2654.69,711.093 2662.03,701.593 2668.5,691.5C2675.66,694.912 2682.66,698.578 2689.5,702.5C2680.95,724.57 2665.95,741.403 2644.5,753C2612.88,767.64 2580.54,769.307 2547.5,758C2526.71,749.035 2510.54,734.868 2499,715.5C2489.92,700.759 2484.75,684.759 2483.5,667.5C2483.2,655.097 2483.86,642.764 2485.5,630.5C2495.97,588.53 2521.97,561.364 2563.5,549C2621.23,538.617 2663.07,559.45 2689,611.5C2692.97,622.191 2695.47,633.191 2696.5,644.5ZM2667.5,630.5C2655.02,592.31 2628.52,572.977 2588,572.5C2551,574.008 2526.83,592.342 2515.5,627.5C2515.33,629.861 2514.99,632.194 2514.5,634.5L2667.5,634.5L2667.5,630.5Z" style="fill:rgb(36,41,49);"/>
        </g>
        <g transform="matrix(1.31853,0,0,3.19343,-545.639,-1435.44)">
            <path d="M1110.5,676.5C1109.08,678.515 1108.41,680.848 1108.5,683.5C1094.69,730.402 1063.69,757.902 1015.5,766C977.608,768.712 946.608,755.546 922.5,726.5C922.44,725.957 922.107,725.624 921.5,725.5C920.5,764.161 920.167,802.828 920.5,841.5L894.5,841.5C894.027,772.142 894.527,702.809 896,633.5C905.541,588.959 932.374,561.126 976.5,550C1035.27,539.802 1077.77,561.302 1104,614.5C1111.34,634.591 1113.51,655.258 1110.5,676.5ZM1083.5,673.5C1088.2,644.456 1080.7,619.123 1061,597.5C1035.05,573.55 1005.21,567.05 971.5,578C944.791,589.531 928.124,609.365 921.5,637.5C920.723,648.148 920.39,658.815 920.5,669.5C920.958,675.957 922.125,682.291 924,688.5C936.39,717.779 958.223,735.279 989.5,741C1035.71,744.084 1066.38,723.917 1081.5,680.5C1081.41,677.848 1082.08,675.515 1083.5,673.5Z" style="fill:rgb(37,42,50);"/>
        </g>
        <g transform="matrix(1.31853,0,0,3.19343,-545.639,-1435.44)">
            <path d="M1718.5,525.5C1718.66,529.582 1718.16,533.582 1717,537.5C1716.5,613.499 1716.33,689.499 1716.5,765.5C1715.33,688.668 1715.17,611.668 1716,534.5C1716.41,531.258 1717.24,528.258 1718.5,525.5Z" style="fill:rgb(74,78,85);"/>
        </g>
        <g transform="matrix(1.31853,0,0,3.19343,-545.639,-1435.44)">
            <path d="M1185.5,638.5C1184.06,645.617 1183.22,652.951 1183,660.5C1182.5,695.165 1182.33,729.832 1182.5,764.5L1156.5,764.5C1156.19,721.476 1156.52,678.476 1157.5,635.5C1165.27,596.109 1187.6,568.609 1224.5,553C1237.33,549.715 1249.33,551.548 1260.5,558.5C1255.9,566.034 1251.07,573.368 1246,580.5C1240.22,578.131 1234.39,577.964 1228.5,580C1214.13,587.035 1202.96,597.535 1195,611.5C1189.74,619.782 1186.57,628.782 1185.5,638.5Z" style="fill:rgb(36,41,49);"/>
        </g>
        <g transform="matrix(1.31853,0,0,3.19343,-545.639,-1435.44)">
            <path d="M1540.5,616.5C1541.97,624.76 1542.64,633.094 1542.5,641.5L1542.5,764.5L1518.5,764.5C1518.67,728.165 1518.5,691.832 1518,655.5C1517.82,652.635 1517.32,649.969 1516.5,647.5C1516.65,639.804 1516.31,632.138 1515.5,624.5C1515.71,621.505 1515.04,618.838 1513.5,616.5C1510.25,598.75 1499.92,587.583 1482.5,583C1464.8,578.437 1447.13,578.437 1429.5,583C1413.13,588.569 1401.3,599.069 1394,614.5C1392.84,621.794 1392,629.127 1391.5,636.5C1390.11,641.269 1389.44,646.269 1389.5,651.5C1388.52,689.136 1388.19,726.803 1388.5,764.5L1362.5,764.5C1362.33,722.832 1362.5,681.165 1363,639.5C1364.5,631.529 1365.66,623.529 1366.5,615.5C1368.23,604.483 1372.39,594.483 1379,585.5C1399.15,561.497 1424.98,550.163 1456.5,551.5C1489.74,549.867 1515.24,562.867 1533,590.5C1537.02,598.721 1539.52,607.388 1540.5,616.5Z" style="fill:rgb(35,40,48);"/>
        </g>
        <g transform="matrix(1.31853,0,0,3.19343,-545.639,-1435.44)">
            <path d="M2135.5,621.5C2133.19,625.085 2131.86,629.085 2131.5,633.5L2131.5,635.5C2129.25,644.556 2128.09,653.89 2128,663.5C2127.5,697.165 2127.33,730.832 2127.5,764.5L2101.5,764.5C2101.21,721.153 2101.54,677.82 2102.5,634.5C2103.92,632.485 2104.59,630.152 2104.5,627.5C2114.14,590.03 2137.14,564.863 2173.5,552C2184.56,550.016 2194.9,551.85 2204.5,557.5C2205.52,558.002 2205.69,558.668 2205,559.5C2200.71,565.915 2196.54,572.415 2192.5,579C2189.18,579.175 2185.85,579.008 2182.5,578.5C2172.92,579.625 2164.58,583.458 2157.5,590C2147.97,599.017 2140.64,609.517 2135.5,621.5Z" style="fill:rgb(35,40,48);"/>
        </g>
        <g transform="matrix(1.31853,0,0,3.19343,-545.639,-1435.44)">
            <path d="M1745.5,536.5C1743.85,549.098 1743.18,561.764 1743.5,574.5C1742.34,565.343 1742.18,556.009 1743,546.5C1743.53,542.962 1744.37,539.628 1745.5,536.5Z" style="fill:rgb(200,201,203);"/>
        </g>
        <g transform="matrix(1.31853,0,0,3.19343,-545.639,-1435.44)">
            <path d="M1280.5,556.5L1280.5,764.5L1305.5,764.5L1305.5,556.5C1306.5,625.998 1306.83,695.665 1306.5,765.5L1279.5,765.5C1279.17,695.665 1279.5,625.998 1280.5,556.5Z" style="fill:rgb(85,90,95);"/>
        </g>
        <g transform="matrix(1.31853,0,0,3.19343,-545.639,-1435.44)">
            <rect x="1280.5" y="556.5" width="25" height="208" style="fill:rgb(35,40,48);"/>
        </g>
        <g transform="matrix(1.31853,0,0,3.19343,-545.639,-1435.44)">
            <path d="M568.5,567.5C568.326,569.861 567.993,572.194 567.5,574.5C549.136,575.153 531.136,574.487 513.5,572.5C531.09,573.486 548.757,573.819 566.5,573.5C566.595,571.214 567.262,569.214 568.5,567.5Z" style="fill:rgb(208,209,211);"/>
        </g>
        <g transform="matrix(1.31853,0,0,3.19343,-545.639,-1435.44)">
            <path d="M1614.5,475.5C1615.5,508.662 1615.83,541.996 1615.5,575.5C1632.01,575.17 1648.34,575.504 1664.5,576.5L1614.5,576.5L1614.5,475.5Z" style="fill:rgb(128,131,135);"/>
        </g>
        <g transform="matrix(1.31853,0,0,3.19343,-545.639,-1435.44)">
            <path d="M562.5,586.5C555.532,585.169 548.198,584.503 540.5,584.5C532.802,584.503 525.468,585.169 518.5,586.5C517.596,585.791 517.263,584.791 517.5,583.5L563.5,583.5C563.737,584.791 563.404,585.791 562.5,586.5Z" style="fill:rgb(180,181,184);"/>
        </g>
        <g transform="matrix(1.31853,0,0,3.19343,-545.639,-1435.44)">
            <path d="M562.5,586.5C559.003,596.998 555.67,607.665 552.5,618.5C551.975,619.192 551.308,619.692 550.5,620C543.5,620.667 536.5,620.667 529.5,620C529,619.5 528.5,619 528,618.5C524.266,607.989 521.099,597.323 518.5,586.5C525.468,585.169 532.802,584.503 540.5,584.5C548.198,584.503 555.532,585.169 562.5,586.5Z" style="fill:rgb(36,41,49);"/>
        </g>
        <g transform="matrix(1.31853,0,0,3.19343,-545.639,-1435.44)">
            <path d="M1664.5,598.5C1648.34,599.496 1632.01,599.83 1615.5,599.5L1615.5,696.5C1614.5,664.004 1614.17,631.338 1614.5,598.5L1664.5,598.5Z" style="fill:rgb(141,144,148);"/>
        </g>
        <g transform="matrix(1.31853,0,0,3.19343,-545.639,-1435.44)">
            <path d="M1851.5,616.5C1850.94,621.165 1849.61,625.498 1847.5,629.5C1848.06,624.835 1849.39,620.502 1851.5,616.5Z" style="fill:rgb(89,93,99);"/>
        </g>
        <g transform="matrix(1.31853,0,0,3.19343,-545.639,-1435.44)">
            <path d="M2224.5,617.5C2223.94,622.165 2222.61,626.498 2220.5,630.5C2221.06,625.835 2222.39,621.502 2224.5,617.5Z" style="fill:rgb(103,106,112);"/>
        </g>
        <g transform="matrix(1.31853,0,0,3.19343,-545.639,-1435.44)">
            <path d="M1513.5,616.5C1515.04,618.838 1515.71,621.505 1515.5,624.5C1514.23,622.095 1513.57,619.428 1513.5,616.5Z" style="fill:rgb(140,143,147);"/>
        </g>
        <g transform="matrix(1.31853,0,0,3.19343,-545.639,-1435.44)">
            <path d="M2135.5,621.5C2134.74,625.767 2133.41,629.767 2131.5,633.5C2131.86,629.085 2133.19,625.085 2135.5,621.5Z" style="fill:rgb(183,185,188);"/>
        </g>
        <g transform="matrix(1.31853,0,0,3.19343,-545.639,-1435.44)">
            <path d="M2251.5,623.5C2250.74,627.767 2249.41,631.767 2247.5,635.5C2247.86,631.085 2249.19,627.085 2251.5,623.5Z" style="fill:rgb(191,192,195);"/>
        </g>
        <g transform="matrix(1.31853,0,0,3.19343,-545.639,-1435.44)">
            <path d="M752.5,857.5C753.966,856.653 754.8,855.32 755,853.5C755.812,849.311 755.645,845.311 754.5,841.5C751.554,829.39 743.887,822.223 731.5,820C602.5,819.667 473.5,819.333 344.5,819C332.32,815.979 323.653,808.812 318.5,797.5C315.871,787.801 315.871,778.134 318.5,768.5C323.884,756.296 333.217,749.13 346.5,747C475.5,746.667 604.5,746.333 733.5,746C748.88,741.62 756.047,731.454 755,715.5C752.158,704.658 745.325,697.825 734.5,695C669.167,694.667 603.833,694.333 538.5,694C537.667,693.167 536.833,692.333 536,691.5C535.5,671.503 535.333,651.503 535.5,631.5L545.5,631.5C545.333,647.837 545.5,664.17 546,680.5C546.374,681.416 546.874,682.25 547.5,683C609.167,683.333 670.833,683.667 732.5,684C760.176,691.521 770.009,709.021 762,736.5C755.89,747.93 746.39,754.763 733.5,757C604.167,757.333 474.833,757.667 345.5,758C326.192,766.113 321.025,779.613 330,798.5C333.903,803.868 339.07,807.368 345.5,809C475.863,809.01 606.196,809.677 736.5,811C754.348,815.366 764.015,826.7 765.5,845C764.804,864.012 755.47,876.345 737.5,882C597.5,882.667 457.5,882.667 317.5,882C314.833,879 314.833,876 317.5,873C456.167,872.667 594.833,872.333 733.5,872C742.007,869.991 748.34,865.157 752.5,857.5Z" style="fill:rgb(39,44,52);"/>
        </g>
        <g transform="matrix(1.31853,0,0,3.19343,-545.639,-1435.44)">
            <path d="M2104.5,627.5C2104.59,630.152 2103.92,632.485 2102.5,634.5C2102.41,631.848 2103.08,629.515 2104.5,627.5Z" style="fill:rgb(113,116,121);"/>
        </g>
        <g transform="matrix(1.31853,0,0,3.19343,-545.639,-1435.44)">
            <path d="M2515.5,627.5C2515.33,629.861 2514.99,632.194 2514.5,634.5L2667.5,634.5L2667.5,630.5C2668.45,631.919 2668.78,633.585 2668.5,635.5C2616.5,635.833 2564.5,635.5 2512.5,634.5C2513.33,631.984 2514.33,629.65 2515.5,627.5Z" style="fill:rgb(142,144,149);"/>
        </g>
        <g transform="matrix(1.31853,0,0,3.19343,-545.639,-1435.44)">
            <path d="M1847.5,630.5C1847.59,633.152 1846.92,635.485 1845.5,637.5C1845.41,634.848 1846.08,632.515 1847.5,630.5Z" style="fill:rgb(113,116,122);"/>
        </g>
        <g transform="matrix(1.31853,0,0,3.19343,-545.639,-1435.44)">
            <path d="M1157.5,635.5C1156.52,678.476 1156.19,721.476 1156.5,764.5C1155.34,722.669 1155.17,680.669 1156,638.5C1156.23,637.263 1156.73,636.263 1157.5,635.5Z" style="fill:rgb(74,78,85);"/>
        </g>
        <g transform="matrix(1.31853,0,0,3.19343,-545.639,-1435.44)">
            <path d="M2102.5,634.5C2101.54,677.82 2101.21,721.153 2101.5,764.5C2100.34,723.002 2100.17,681.335 2101,639.5C2101.2,637.618 2101.7,635.952 2102.5,634.5Z" style="fill:rgb(84,88,94);"/>
        </g>
        <g transform="matrix(1.31853,0,0,3.19343,-545.639,-1435.44)">
            <path d="M1391.5,636.5C1391.56,641.731 1390.89,646.731 1389.5,651.5C1389.44,646.269 1390.11,641.269 1391.5,636.5Z" style="fill:rgb(150,153,157);"/>
        </g>
        <g transform="matrix(1.31853,0,0,3.19343,-545.639,-1435.44)">
            <path d="M2409.5,641.5C2410.66,649.323 2410.82,657.323 2410,665.5C2409.85,669.133 2409.02,672.466 2407.5,675.5C2409.13,664.236 2409.8,652.903 2409.5,641.5Z" style="fill:rgb(84,88,94);"/>
        </g>
        <g transform="matrix(1.31853,0,0,3.19343,-545.639,-1435.44)">
            <path d="M2485.5,630.5C2483.86,642.764 2483.2,655.097 2483.5,667.5C2482.34,659.01 2482.18,650.343 2483,641.5C2483.42,637.608 2484.25,633.942 2485.5,630.5Z" style="fill:rgb(101,104,110);"/>
        </g>
        <g transform="matrix(1.31853,0,0,3.19343,-545.639,-1435.44)">
            <path d="M1542.5,641.5C1543.5,682.663 1543.83,723.997 1543.5,765.5L1516.5,765.5L1516.5,647.5C1517.32,649.969 1517.82,652.635 1518,655.5C1518.5,691.832 1518.67,728.165 1518.5,764.5L1542.5,764.5L1542.5,641.5Z" style="fill:rgb(73,77,84);"/>
        </g>
        <g transform="matrix(1.31853,0,0,3.19343,-545.639,-1435.44)">
            <path d="M2033.5,644.5C2034.66,652.323 2034.82,660.323 2034,668.5C2033.8,671.797 2032.96,674.797 2031.5,677.5C2033.16,666.574 2033.83,655.574 2033.5,644.5Z" style="fill:rgb(112,115,120);"/>
        </g>
        <g transform="matrix(1.31853,0,0,3.19343,-545.639,-1435.44)">
            <path d="M1540.5,616.5C1541.12,616.611 1541.62,616.944 1542,617.5C1542.94,623.803 1543.61,630.137 1544,636.5C1544.83,679.669 1544.66,722.669 1543.5,765.5C1543.83,723.997 1543.5,682.663 1542.5,641.5C1542.64,633.094 1541.97,624.76 1540.5,616.5Z" style="fill:rgb(203,204,206);"/>
        </g>
        <g transform="matrix(1.31853,0,0,3.19343,-545.639,-1435.44)">
            <path d="M2696.5,644.5C2697.49,648.97 2697.82,653.637 2697.5,658.5L2510.5,658.5L2510.5,661.5C2509.57,660.432 2509.23,659.099 2509.5,657.5L2696.5,657.5L2696.5,644.5Z" style="fill:rgb(142,144,148);"/>
        </g>
        <g transform="matrix(1.31853,0,0,3.19343,-545.639,-1435.44)">
            <path d="M1873.5,638.5C1872.74,648.482 1872.41,658.482 1872.5,668.5C1871.83,664.514 1871.5,660.347 1871.5,656C1871.3,649.917 1871.97,644.084 1873.5,638.5Z" style="fill:rgb(179,181,184);"/>
        </g>
        <g transform="matrix(1.31853,0,0,3.19343,-545.639,-1435.44)">
            <path d="M921.5,637.5C920.723,648.148 920.39,658.815 920.5,669.5C919.834,665.18 919.501,660.68 919.5,656C919.289,649.586 919.955,643.419 921.5,637.5Z" style="fill:rgb(197,199,201);"/>
        </g>
        <g transform="matrix(1.31853,0,0,3.19343,-545.639,-1435.44)">
            <path d="M1185.5,638.5C1183.99,680.635 1182.99,722.635 1182.5,764.5C1182.33,729.832 1182.5,695.165 1183,660.5C1183.22,652.951 1184.06,645.617 1185.5,638.5Z" style="fill:rgb(178,180,183);"/>
        </g>
        <g transform="matrix(1.31853,0,0,3.19343,-545.639,-1435.44)">
            <path d="M1845.5,642.5C1845.34,653.854 1845.67,665.187 1846.5,676.5C1845.71,675.391 1845.21,674.058 1845,672.5C1844.18,662.325 1844.34,652.325 1845.5,642.5Z" style="fill:rgb(84,88,94);"/>
        </g>
        <g transform="matrix(1.31853,0,0,3.19343,-545.639,-1435.44)">
            <path d="M1083.5,673.5C1083.59,676.152 1082.92,678.485 1081.5,680.5C1081.41,677.848 1082.08,675.515 1083.5,673.5Z" style="fill:rgb(109,112,117);"/>
        </g>
        <g transform="matrix(1.31853,0,0,3.19343,-545.639,-1435.44)">
            <path d="M2407.5,676.5C2407.28,680.162 2406.28,683.495 2404.5,686.5C2404.72,682.838 2405.72,679.505 2407.5,676.5Z" style="fill:rgb(106,110,115);"/>
        </g>
        <g transform="matrix(1.31853,0,0,3.19343,-545.639,-1435.44)">
            <path d="M2031.5,678.5C2031.59,681.152 2030.92,683.485 2029.5,685.5C2029.41,682.848 2030.08,680.515 2031.5,678.5Z" style="fill:rgb(112,115,120);"/>
        </g>
        <g transform="matrix(1.31853,0,0,3.19343,-545.639,-1435.44)">
            <path d="M1110.5,676.5C1110.59,679.152 1109.92,681.485 1108.5,683.5C1108.41,680.848 1109.08,678.515 1110.5,676.5Z" style="fill:rgb(171,173,176);"/>
        </g>
        <g transform="matrix(1.31853,0,0,3.19343,-545.639,-1435.44)">
            <path d="M1366.5,615.5C1365.66,623.529 1364.5,631.529 1363,639.5C1362.5,681.165 1362.33,722.832 1362.5,764.5L1388.5,764.5C1379.68,765.493 1370.68,765.827 1361.5,765.5C1361.33,722.832 1361.5,680.165 1362,637.5C1362.82,629.893 1364.32,622.56 1366.5,615.5Z" style="fill:rgb(91,95,101);"/>
        </g>
        <g transform="matrix(1.31853,0,0,3.19343,-545.639,-1435.44)">
            <path d="M2058.5,683.5C2057.99,688.703 2056.32,693.37 2053.5,697.5C2054.8,692.607 2056.46,687.94 2058.5,683.5Z" style="fill:rgb(179,180,183);"/>
        </g>
        <g transform="matrix(1.31853,0,0,3.19343,-545.639,-1435.44)">
            <path d="M2131.5,635.5C2130.29,645.123 2129.46,654.79 2129,664.5C2128.83,698.003 2128.33,731.336 2127.5,764.5C2127.33,730.832 2127.5,697.165 2128,663.5C2128.09,653.89 2129.25,644.556 2131.5,635.5Z" style="fill:rgb(155,157,161);"/>
        </g>
        <g transform="matrix(1.31853,0,0,3.19343,-545.639,-1435.44)">
            <path d="M2407.5,747.5C2407.83,739.316 2407.49,731.316 2406.5,723.5C2406.37,722.624 2406.7,721.957 2407.5,721.5C2408.82,730.325 2408.82,738.991 2407.5,747.5Z" style="fill:rgb(175,177,180);"/>
        </g>
        <g transform="matrix(1.31853,0,0,3.19343,-545.639,-1435.44)">
            <path d="M922.5,726.5C921.833,764.833 921.167,803.167 920.5,841.5C920.167,802.828 920.5,764.161 921.5,725.5C922.107,725.624 922.44,725.957 922.5,726.5Z" style="fill:rgb(117,120,125);"/>
        </g>
        <g transform="matrix(1.31853,0,0,3.19343,-545.639,-1435.44)">
            <path d="M2249.5,777.5C2240.1,776.862 2231.1,777.529 2222.5,779.5C2221.52,779.189 2220.86,778.522 2220.5,777.5C2230.33,776.177 2239.99,776.177 2249.5,777.5Z" style="fill:rgb(83,87,93);"/>
        </g>
        <g transform="matrix(1.31853,0,0,3.19343,-545.639,-1435.44)">
            <path d="M318.5,768.5C315.871,778.134 315.871,787.801 318.5,797.5C317.207,796.158 316.374,794.491 316,792.5C315.333,786.167 315.333,779.833 316,773.5C316.374,771.509 317.207,769.842 318.5,768.5Z" style="fill:rgb(84,87,94);"/>
        </g>
        <g transform="matrix(1.31853,0,0,3.19343,-545.639,-1435.44)">
            <path d="M754.5,841.5C755.645,845.311 755.812,849.311 755,853.5C754.8,855.32 753.966,856.653 752.5,857.5C754.184,852.324 754.85,846.991 754.5,841.5Z" style="fill:rgb(123,126,131);"/>
        </g>
    </g>
</svg>
